<?xml version="1.0" encoding="UTF-8" standalone="no"?>
<!DOCTYPE svg PUBLIC "-//W3C//DTD SVG 1.1//EN" "http://www.w3.org/Graphics/SVG/1.1/DTD/svg11.dtd">
<svg width="100%" height="100%" viewBox="0 0 647 490" version="1.1" xmlns="http://www.w3.org/2000/svg" xmlns:xlink="http://www.w3.org/1999/xlink" xml:space="preserve" xmlns:serif="http://www.serif.com/" style="fill-rule:evenodd;clip-rule:evenodd;stroke-linejoin:round;stroke-miterlimit:2;">
    <g transform="matrix(1,0,0,1,-6251.34,-834.685)">
        <g transform="matrix(1,0,0,1,-0.538621,-0.64957)">
            <g id="fuillcolor" transform="matrix(1,0,0,1,-9.92888,643.097)">
                <g transform="matrix(2.29761,0,0,2.29761,2947.33,-1113.04)">
                    <g transform="matrix(3.51058,0,0,3.51058,-776.557,-811.766)">
                        <g transform="matrix(1,0,0,1,-11.0535,-16.9943)">
                            <path d="M665.938,463.59C663.135,463.59 660.997,462.816 659.523,461.267C658.049,459.719 657.312,457.393 657.312,454.29L657.312,438.977C657.312,435.906 658.049,433.587 659.523,432.019C660.997,430.452 663.135,429.668 665.938,429.668C667.868,429.668 669.5,430.052 670.835,430.821C672.169,431.59 673.145,432.68 673.762,434.093C674.378,435.506 674.56,437.174 674.308,439.098C674.295,439.404 674.167,439.557 673.923,439.557L670.681,439.557C670.418,439.557 670.293,439.412 670.305,439.121C670.448,437.245 670.153,435.808 669.42,434.811C668.687,433.814 667.54,433.315 665.98,433.315C664.469,433.315 663.316,433.787 662.519,434.73C661.722,435.673 661.324,437.134 661.324,439.113L661.324,454.116C661.324,456.114 661.724,457.584 662.524,458.528C663.324,459.471 664.476,459.943 665.98,459.943C667.603,459.943 668.775,459.416 669.495,458.363C670.215,457.309 670.507,455.898 670.37,454.127C670.327,453.837 670.441,453.691 670.713,453.691L673.901,453.691C674.166,453.691 674.316,453.855 674.35,454.183C674.594,457.101 673.971,459.398 672.482,461.075C670.993,462.752 668.812,463.59 665.938,463.59Z" style="fill-rule:nonzero;"/>
                        </g>
                        <g transform="matrix(1,0,0,1,-11.0535,-16.9943)">
                            <path d="M681.749,463.253C681.493,463.253 681.364,463.111 681.364,462.827L681.364,433.674L675.773,433.674C675.516,433.674 675.387,433.521 675.387,433.215L675.387,430.431C675.387,430.146 675.516,430.004 675.773,430.004L690.958,430.004C691.215,430.004 691.343,430.146 691.343,430.431L691.343,433.215C691.343,433.521 691.215,433.674 690.958,433.674L685.376,433.674L685.376,462.827C685.376,463.111 685.248,463.253 684.991,463.253L681.749,463.253Z" style="fill-rule:nonzero;"/>
                        </g>
                        <g transform="matrix(1,0,0,1,-11.0535,-16.9943)">
                            <path d="M700.619,463.59C697.796,463.59 695.651,462.822 694.184,461.287C692.716,459.752 691.983,457.505 691.983,454.546L691.983,438.754C691.983,435.767 692.716,433.506 694.184,431.971C695.651,430.435 697.796,429.668 700.619,429.668C703.462,429.668 705.619,430.435 707.09,431.971C708.56,433.506 709.296,435.767 709.296,438.754L709.296,454.546C709.296,457.505 708.56,459.752 707.09,461.287C705.619,462.822 703.462,463.59 700.619,463.59ZM700.619,459.943C702.157,459.943 703.32,459.488 704.105,458.578C704.891,457.669 705.284,456.267 705.284,454.372L705.284,438.928C705.284,437.005 704.891,435.589 704.105,434.679C703.32,433.77 702.157,433.315 700.619,433.315C699.108,433.315 697.959,433.77 697.174,434.679C696.388,435.589 695.995,437.005 695.995,438.928L695.995,454.372C695.995,456.267 696.388,457.669 697.174,458.578C697.959,459.488 699.108,459.943 700.619,459.943Z" style="fill-rule:nonzero;"/>
                        </g>
                    </g>
                    <g transform="matrix(1.13608,0,0,1.13608,745.704,106.286)">
                        <g transform="matrix(42.0642,0,0,42.0642,820.164,457.556)">
                        </g>
                        <text x="655.272px" y="457.556px" style="font-family:'Barlow-Bold', 'Barlow';font-weight:700;font-size:42.064px;">L<tspan x="677.65px 698.22px 729.473px 753.324px 775.071px 797.197px " y="457.556px 457.556px 457.556px 457.556px 457.556px 457.556px ">owCode</tspan></text>
                    </g>
                </g>
                <g transform="matrix(10.8148,0,0,10.8148,6367.42,192.238)">
                    <path d="M-4.724,22.147C-5.436,21.557 -6.293,21.113 -7.267,20.872C-6.356,20.267 -5.859,19.195 -5.859,18.139L-5.859,7.368L-5.859,7.368L-5.859,5.752C-5.859,2.699 -3.516,0 0,0C0.497,0 0.781,0.284 0.781,0.781L0.781,1.74C0.781,2.237 0.497,2.521 0,2.521C-1.989,2.521 -3.125,4.154 -3.125,5.752L-3.125,17.387L-3.125,17.387L-3.125,18.139C-3.125,19.659 -3.706,21.092 -4.724,22.147ZM-9.765,23.115L-9.765,23.11L-9.765,22.156L-9.765,22.151C-9.763,21.657 -9.479,21.375 -8.984,21.375C-7.506,21.375 -6.234,21.853 -5.258,22.633C-6.234,23.413 -7.506,23.891 -8.984,23.891C-9.479,23.891 -9.763,23.609 -9.765,23.115Z"/>
                </g>
                <g transform="matrix(10.8148,0,0,-10.8148,6367.42,681.782)">
                    <path d="M-3.125,17.387L-3.125,17.387L-3.125,5.752C-3.125,4.154 -1.989,2.521 0,2.521C0.497,2.521 0.781,2.237 0.781,1.74L0.781,0.781C0.781,0.284 0.497,0 0,0C-3.516,0 -5.859,2.699 -5.859,5.752L-5.859,7.368L-5.859,7.368L-5.859,18.139C-5.859,19.737 -6.995,21.37 -8.984,21.37C-9.481,21.37 -9.765,21.654 -9.765,22.151L-9.765,23.11C-9.765,23.607 -9.481,23.891 -8.984,23.891C-5.468,23.891 -3.125,21.192 -3.125,18.139L-3.125,17.387Z"/>
                </g>
                <g transform="matrix(-10.8148,0,0,-10.8148,6802.98,681.782)">
                    <path d="M-4.724,22.147C-5.436,21.557 -6.293,21.113 -7.267,20.872C-6.356,20.267 -5.859,19.195 -5.859,18.139L-5.859,7.368L-5.859,7.368L-5.859,5.752C-5.859,2.699 -3.516,0 0,0C0.497,0 0.781,0.284 0.781,0.781L0.781,1.74C0.781,2.237 0.497,2.521 0,2.521C-1.989,2.521 -3.125,4.154 -3.125,5.752L-3.125,17.387L-3.125,17.387L-3.125,18.139C-3.125,19.659 -3.706,21.092 -4.724,22.147ZM-9.765,23.115L-9.765,23.11L-9.765,22.156L-9.765,22.151C-9.763,21.657 -9.479,21.375 -8.984,21.375C-7.506,21.375 -6.234,21.853 -5.258,22.633C-6.234,23.413 -7.506,23.891 -8.984,23.891C-9.479,23.891 -9.763,23.609 -9.765,23.115Z"/>
                </g>
                <g transform="matrix(-10.8148,0,0,10.8148,6802.98,192.238)">
                    <path d="M-3.125,17.387L-3.125,17.387L-3.125,5.752C-3.125,4.154 -1.989,2.521 0,2.521C0.497,2.521 0.781,2.237 0.781,1.74L0.781,0.781C0.781,0.284 0.497,0 0,0C-3.516,0 -5.859,2.699 -5.859,5.752L-5.859,7.368L-5.859,7.368L-5.859,18.139C-5.859,19.737 -6.995,21.37 -8.984,21.37C-9.481,21.37 -9.765,21.654 -9.765,22.151L-9.765,23.11C-9.765,23.607 -9.481,23.891 -8.984,23.891C-5.468,23.891 -3.125,21.192 -3.125,18.139L-3.125,17.387Z"/>
                </g>
            </g>
        </g>
    </g>
</svg>
